<?xml version="1.0" encoding="UTF-8"?>
<svg width="141px" height="34px" viewBox="0 0 141 34" version="1.1" xmlns="http://www.w3.org/2000/svg" xmlns:xlink="http://www.w3.org/1999/xlink">
    <!-- Generator: Sketch 49 (51002) - http://www.bohemiancoding.com/sketch -->
    <title>logo</title>
    <desc>Created with Sketch.</desc>
    <defs></defs>
    <g id="Page-1" stroke="none" stroke-width="1" fill="none" fill-rule="evenodd">
        <g id="final-copy-14" transform="translate(-96.000000, -55.000000)">
            <g id="logo" transform="translate(96.000000, 55.000000)">
                <path d="M94.5264773,24.3471586 C94.0355682,25.1659 92.4804545,26.3954345 90.8446591,26.3954345 C89.3304545,26.3954345 88.3486364,25.2484 88.3486364,23.7730724 C88.3486364,22.0934862 89.6986364,21.0693483 91.6628409,21.0693483 C93.1355682,21.0693483 94.2810227,21.5615034 94.5264773,21.7253655 L94.5264773,24.3471586 Z M92.3992045,12.097331 C97.6361364,12.097331 98.1270455,15.2926414 98.1270455,19.3897621 L98.1270455,28.1159862 C98.1270455,28.5262103 97.7582955,28.894331 97.3497727,28.894331 L96.20375,28.894331 C95.8355682,28.894331 95.6725,28.730469 95.5088636,28.3208138 L95.0992045,27.2147448 C94.1992045,28.0755897 92.6031818,29.3045552 90.0668182,29.3045552 C86.9986364,29.3045552 84.7889773,27.2147448 84.7889773,23.8140379 C84.7889773,20.8241241 87.1622727,18.5289172 91.3355682,18.5289172 C93.05375,18.5289172 94.5673864,19.0210724 94.5673864,19.0210724 C94.6082955,16.4402448 94.1173864,15.4161069 92.0304545,15.4161069 C90.1486364,15.4161069 88.3077273,15.9071241 87.4486364,16.1534862 C86.9577273,16.2758138 86.6713636,15.9480897 86.5486364,15.497469 L86.2213636,13.9817448 C86.0986364,13.4491931 86.385,13.1624345 86.7526136,13.0395379 C87.0395455,12.9166414 89.3713636,12.097331 92.3992045,12.097331 Z M103.161307,28.8944448 C102.733466,28.8944448 102.384034,28.544531 102.384034,28.1161 L102.384034,1.77982414 C102.384034,1.34911724 102.73233,1.00034138 103.162443,1.00034138 L105.492557,1.00034138 C105.922102,1.00034138 106.270966,1.34911724 106.270966,1.77982414 L106.270966,28.1161 C106.270966,28.544531 105.920398,28.8944448 105.493125,28.8944448 L103.161307,28.8944448 Z M120.142955,25.2895362 L120.879886,27.092019 C121.083864,27.5426397 120.920227,27.8703638 120.511136,28.0751914 C120.102614,28.3209845 117.688409,29.3047259 115.724773,29.3047259 C112.492386,29.3047259 111.551477,27.3378121 111.551477,24.4286914 L111.551477,15.9072948 L109.832727,15.9072948 C109.383295,15.9072948 109.055455,15.5386052 109.055455,15.129519 L109.055455,13.2849328 C109.055455,12.8343121 109.383295,12.5071569 109.832727,12.5071569 L111.551477,12.5071569 L111.551477,7.95941552 C111.551477,7.54976034 111.919659,7.18107069 112.32875,7.18107069 L114.661136,7.14010517 C115.069659,7.14010517 115.396932,7.50879483 115.396932,7.91845 L115.396932,12.5071569 L119.570227,12.5071569 C120.020227,12.5071569 120.3475,12.8343121 120.3475,13.2849328 L120.3475,15.129519 C120.3475,15.5386052 120.020227,15.9072948 119.570227,15.9072948 L115.396932,15.9072948 L115.396932,24.0196052 C115.396932,25.4124328 115.929318,25.6576569 116.706591,25.6576569 C117.565682,25.6576569 118.711136,25.1660707 119.202045,24.9208466 C119.733864,24.6750534 119.979318,24.9208466 120.142955,25.2895362 Z M139.505511,12.5072138 C140.160057,12.5072138 140.487898,13.0397655 140.201534,13.5723172 L131.310625,32.832369 C131.18392,33.1077483 130.907784,33.2846966 130.604375,33.2846966 L128.225966,33.2846966 C127.656648,33.2846966 127.279943,32.6924034 127.520852,32.1746448 L129.318011,28.3210414 L122.199261,13.5723172 C121.953807,13.0397655 122.281648,12.5072138 122.895284,12.5072138 L125.595284,12.5072138 C125.840739,12.5072138 126.168011,12.7114724 126.290739,12.9578345 L131.364034,23.855231 L131.404943,23.855231 L136.314602,12.9578345 C136.478239,12.5891448 136.805511,12.5072138 137.173693,12.5072138 L139.505511,12.5072138 Z M42.2321023,28.8944448 C41.8042614,28.8944448 41.4548295,28.544531 41.4548295,28.1161 L41.4548295,1.77982414 C41.4548295,1.34911724 41.803125,1.00034138 42.2332386,1.00034138 L44.5633523,1.00034138 C44.9928977,1.00034138 45.3417614,1.34911724 45.3417614,1.77982414 L45.3417614,28.1161 C45.3417614,28.544531 44.9911932,28.8944448 44.5639205,28.8944448 L42.2321023,28.8944448 Z M56.8739205,25.7806672 C54.2966477,25.7806672 52.250625,23.4865983 52.250625,20.6599776 C52.250625,17.914719 54.2966477,15.6616155 56.8739205,15.6616155 C59.4511932,15.6616155 61.4972159,17.914719 61.4972159,20.6599776 C61.4972159,23.4865983 59.4511932,25.7806672 56.8739205,25.7806672 M56.8739205,12.0970466 C61.4557386,12.0970466 65.138125,16.0303052 65.138125,20.6599776 C65.138125,25.3710121 61.4557386,29.3042707 56.8739205,29.3042707 C52.2921023,29.3042707 48.6091477,25.3710121 48.6091477,20.6599776 C48.6091477,16.0303052 52.2921023,12.0970466 56.8739205,12.0970466 Z M83.0357955,12.5072138 C83.6903409,12.5072138 84.0181818,13.0397655 83.7318182,13.5723172 L74.8409091,32.832369 C74.7142045,33.1077483 74.4380682,33.2846966 74.1346591,33.2846966 L71.7568182,33.2846966 C71.1875,33.2846966 70.8107955,32.6918345 71.0517045,32.1746448 L72.8488636,28.3210414 L65.7301136,13.5723172 C65.4840909,13.0397655 65.8119318,12.5072138 66.4255682,12.5072138 L69.1261364,12.5072138 C69.3710227,12.5072138 69.6982955,12.7114724 69.8210227,12.9578345 L74.8943182,23.855231 L74.9352273,23.855231 L79.8448864,12.9578345 C80.0085227,12.5891448 80.3357955,12.5072138 80.7039773,12.5072138 L83.0357955,12.5072138 Z" id="Combined-Shape" fill="#000000"></path>
                <path d="M26.4326858,0 C28.3948312,0 30.000223,1.60539174 30.000223,3.5675372 L30.000223,26.432329 C30.000223,28.3944745 28.3948312,29.9998662 26.4326858,29.9998662 L16.0569498,29.9998662 L16.0569498,15.5107598 C16.0569498,13.9914349 16.4471492,12.76554 17.2288858,11.8344128 C18.0097305,10.9032856 19.0853429,10.4377219 20.4557231,10.4377219 C21.8689138,10.4377219 22.954783,10.8502184 23.7146684,11.6738736 C24.4741079,12.4979747 24.8544965,13.5521819 24.8544965,14.8364953 C24.8544965,16.1422139 24.442,17.228529 23.6183449,18.0954405 C22.7942438,18.9623521 21.6651183,19.3958078 20.2309683,19.3958078 L17.4696945,19.3958078 L17.4696945,22.2212973 L19.8777821,22.2212973 C20.8838276,22.2212973 21.8470627,22.092866 22.7674872,21.8360033 C23.6879118,21.5791406 24.5543774,21.183144 25.3682219,20.6480134 C26.1816203,20.1133288 26.8291283,19.3529974 27.3107459,18.3683571 C27.7923634,17.3841628 28.0331722,16.2282808 28.0331722,14.900711 C28.0331722,12.7815939 27.3749615,11.0370682 26.0585403,9.66713391 C24.7421191,8.29764557 22.88477,7.61223249 20.487831,7.61223249 C18.2402825,7.61223249 16.4368925,8.31860486 15.0776608,9.73134958 C13.7179832,11.1440943 13.0388133,13.1138208 13.0388133,15.6391912 L13.0388133,19.4221184 L10.02692,19.4221184 C8.25028652,19.4221184 7.08325591,18.7692591 6.52716605,17.4635405 C6.24845221,16.7571681 6.1097642,15.7836764 6.1097642,14.5417276 L6.1097642,0 L26.4326858,0 Z M8.75874976,22.1995799 C9.26132656,22.2316878 9.95164501,22.2477417 10.8297051,22.2477417 L13.0389025,22.2477417 L13.0389025,30 L3.5675372,30 C1.60583768,30 4.4408921e-15,28.3946083 4.4408921e-15,26.4324628 L4.4408921e-15,3.56767098 C4.4408921e-15,1.76740252 1.35343442,0.271266609 3.09171692,0.0358091546 L3.09171692,14.606077 C3.09171692,15.9760113 3.20899971,17.1697984 3.4449031,18.1861006 C3.67991462,19.2028487 4.19408592,20.0755575 4.98607917,20.8028891 C5.49935859,21.2523988 6.13081267,21.5895311 6.88044142,21.8142859 C7.62962423,22.0390407 8.25528107,22.1674721 8.75874976,22.1995799 Z" id="Combined-Shape-Copy" fill="#3F74FF"></path>
            </g>
        </g>
    </g>
</svg>