<svg width="40" height="40" viewBox="0 0 40 40" fill="none" xmlns="http://www.w3.org/2000/svg">
<path d="M1.1006 0.0631333C1.2944 0.0058299 1.49759 -0.0127237 1.69857 0.00853247C1.89954 0.0297886 2.09435 0.0904378 2.27188 0.187015C2.44941 0.283592 2.60617 0.414204 2.7332 0.571389C2.86023 0.728573 2.95505 0.909248 3.01223 1.10309L4.14034 4.92448H34.1993C37.9734 4.92448 40.8552 8.44639 39.7681 12.1242L36.3735 23.6109C35.6515 26.058 33.3563 27.6928 30.8047 27.6928H12.0248C9.47322 27.6928 7.18008 26.058 6.45604 23.6109L0.0627411 1.97485C-0.0524389 1.58398 -0.00784653 1.16338 0.186732 0.805358C0.38131 0.447333 0.709977 0.179084 1.1006 0.0631333ZM8.20359 35.3848C8.20359 34.1608 8.68981 32.9869 9.55529 32.1214C10.4208 31.2558 11.5946 30.7696 12.8186 30.7696C14.0426 30.7696 15.2164 31.2558 16.0819 32.1214C16.9473 32.9869 17.4336 34.1608 17.4336 35.3848C17.4336 36.6088 16.9473 37.7827 16.0819 38.6482C15.2164 39.5138 14.0426 40 12.8186 40C11.5946 40 10.4208 39.5138 9.55529 38.6482C8.68981 37.7827 8.20359 36.6088 8.20359 35.3848ZM24.6124 35.3848C24.6124 34.7787 24.7318 34.1786 24.9637 33.6186C25.1957 33.0587 25.5356 32.5499 25.9641 32.1214C26.3927 31.6928 26.9014 31.3528 27.4614 31.1209C28.0213 30.889 28.6214 30.7696 29.2274 30.7696C29.8335 30.7696 30.4336 30.889 30.9935 31.1209C31.5534 31.3528 32.0622 31.6928 32.4907 32.1214C32.9193 32.5499 33.2592 33.0587 33.4911 33.6186C33.7231 34.1786 33.8424 34.7787 33.8424 35.3848C33.8424 36.6088 33.3562 37.7827 32.4907 38.6482C31.6253 39.5138 30.4514 40 29.2274 40C28.0035 40 26.8296 39.5138 25.9641 38.6482C25.0987 37.7827 24.6124 36.6088 24.6124 35.3848Z" fill="#616161"/>
</svg>
