<svg width="40" height="40" viewBox="0 0 40 40" fill="none" xmlns="http://www.w3.org/2000/svg">
<path fill-rule="evenodd" clip-rule="evenodd" d="M18.01 6.74094e-08C15.1328 0.00031159 12.2976 0.689826 9.74168 2.01082C7.18574 3.33182 4.98345 5.24586 3.31918 7.59271C1.65491 9.93956 0.57709 12.6509 0.175937 15.4998C-0.225216 18.3488 0.0619765 21.2523 1.01347 23.9675C1.96497 26.6826 3.55308 29.1303 5.64486 31.1057C7.73664 33.081 10.2712 34.5266 13.0364 35.3213C15.8016 36.1161 18.717 36.2368 21.5385 35.6735C24.36 35.1103 27.0054 33.8793 29.2534 32.0837L36.6083 39.4382C36.9858 39.8028 37.4913 40.0045 38.0161 39.9999C38.5408 39.9954 39.0428 39.7849 39.4138 39.4139C39.7849 39.0428 39.9954 38.5409 39.9999 38.0162C40.0045 37.4914 39.8028 36.9859 39.4382 36.6085L32.0833 29.254C34.2007 26.6041 35.5268 23.4102 35.9089 20.0399C36.2909 16.6696 35.7135 13.2599 34.2431 10.2033C32.7726 7.14665 30.4689 4.56736 27.5971 2.76228C24.7252 0.957205 21.402 -0.000293335 18.01 6.74094e-08ZM6.00203 18.0111C6.00203 16.4342 6.31263 14.8728 6.91608 13.416C7.51954 11.9592 8.40404 10.6356 9.51908 9.52057C10.6341 8.40558 11.9579 7.52112 13.4147 6.9177C14.8716 6.31427 16.4331 6.00369 18.01 6.00369C19.5869 6.00369 21.1484 6.31427 22.6052 6.9177C24.0621 7.52112 25.3859 8.40558 26.5009 9.52057C27.6159 10.6356 28.5004 11.9592 29.1039 13.416C29.7074 14.8728 30.018 16.4342 30.018 18.0111C30.018 21.1956 28.7528 24.2497 26.5009 26.5016C24.249 28.7534 21.1947 30.0184 18.01 30.0184C14.8253 30.0184 11.771 28.7534 9.51908 26.5016C7.26715 24.2497 6.00203 21.1956 6.00203 18.0111Z" fill="#616161"/>
</svg>
